<svg width="94" height="36" viewBox="0 0 94 36" fill="none" xmlns="http://www.w3.org/2000/svg">
<mask id="mask0_2013_2000" style="mask-type:alpha" maskUnits="userSpaceOnUse" x="0" y="0" width="94" height="36">
<rect width="94" height="36" fill="#D9D9D9"/>
</mask>
<g mask="url(#mask0_2013_2000)">
<path d="M90.9341 25.5297C91.1046 25.5297 91.1898 25.6004 91.1898 25.7419V25.8025C91.1898 25.9137 91.0945 26.0653 90.904 26.2573C90.7135 26.4392 90.5681 26.6413 90.4679 26.8636L87.6253 33.139C87.4448 33.5533 87.2894 33.8817 87.1591 34.1242C87.0387 34.3667 86.8583 34.6598 86.6176 35.0034C86.387 35.3469 86.1213 35.6046 85.8205 35.7764C85.5197 35.9482 85.1938 36.0341 84.8429 36.0341C84.2513 36.0341 83.765 35.8775 83.384 35.5642C83.003 35.2611 82.8125 34.9225 82.8125 34.5486C82.8125 34.3263 82.8777 34.1444 83.008 34.0029C83.1384 33.8615 83.3188 33.7907 83.5495 33.7907C83.77 33.7907 83.9505 33.8716 84.0909 34.0333C84.2313 34.2051 84.3265 34.392 84.3767 34.5941C84.4368 34.8063 84.5271 34.9933 84.6474 35.155C84.7677 35.3267 84.9231 35.4126 85.1136 35.4126C85.635 35.4126 86.1965 34.6598 86.7981 33.1541L83.8653 26.8636C83.755 26.6413 83.5996 26.4392 83.3991 26.2573C83.1985 26.0653 83.0983 25.9137 83.0983 25.8025V25.7419C83.0983 25.6004 83.1885 25.5297 83.369 25.5297H85.7453C85.9158 25.5297 86.001 25.6055 86.001 25.7571V25.8025C86.001 25.8834 85.9559 25.9743 85.8656 26.0754C85.7754 26.1764 85.7102 26.2724 85.6701 26.3634C85.64 26.4543 85.6701 26.6261 85.7603 26.8787L87.7456 31.4716L89.6106 27.0455C89.7008 26.7423 89.7008 26.5352 89.6106 26.424C89.5203 26.3027 89.395 26.1916 89.2346 26.0905C89.0742 25.9794 88.9939 25.8834 88.9939 25.8025V25.7571C88.9939 25.6055 89.0842 25.5297 89.2647 25.5297H90.9341Z" fill="white"/>
<path d="M78.4803 32.9571C77.3974 32.9571 76.4799 32.5882 75.7279 31.8505C74.986 31.1027 74.615 30.1983 74.615 29.1373C74.615 28.0156 74.981 27.1112 75.7129 26.424C76.4449 25.7368 77.3422 25.3882 78.4051 25.3781C79.2273 25.368 79.9341 25.5701 80.5257 25.9844C81.1273 26.3886 81.4281 26.8535 81.4281 27.3789C81.4281 27.5709 81.3629 27.7326 81.2326 27.864C81.1123 27.9853 80.9218 28.0408 80.6611 28.0307C80.4204 28.0206 80.2049 27.9044 80.0143 27.6821C79.8238 27.4598 79.6684 27.2223 79.5481 26.9697C79.4278 26.7171 79.2423 26.4846 78.9916 26.2724C78.751 26.0602 78.4602 25.9541 78.1193 25.9541C77.608 25.9541 77.1918 26.1764 76.871 26.6211C76.5501 27.0657 76.3897 27.6215 76.3897 28.2884C76.3897 29.3192 76.6354 30.1478 77.1267 30.7743C77.618 31.3907 78.2647 31.6989 79.0668 31.6989C79.9391 31.6989 80.5859 31.2846 81.007 30.456C81.0872 30.3347 81.1925 30.2893 81.3228 30.3196C81.4532 30.3499 81.5083 30.4408 81.4883 30.5924C81.4081 31.2392 81.1022 31.7949 80.5708 32.2598C80.0494 32.7246 79.3526 32.9571 78.4803 32.9571Z" fill="white"/>
<path d="M72.0898 31.5322C72.0999 31.7545 72.1901 31.9566 72.3605 32.1385C72.541 32.3103 72.6313 32.4417 72.6313 32.5326V32.5933C72.6313 32.7448 72.521 32.8206 72.3004 32.8206H70.1045C69.884 32.8206 69.7737 32.7448 69.7737 32.5933V32.5326C69.7737 32.4417 69.8639 32.3103 70.0444 32.1385C70.2349 31.9566 70.3251 31.7545 70.3151 31.5322L70.1647 28.6067C70.0945 26.9394 69.5681 26.1057 68.5855 26.1057C68.1143 26.1057 67.7332 26.2825 67.4425 26.6362C67.1517 26.9798 67.0063 27.4295 67.0063 27.9853V31.5474C67.0063 31.7697 67.1066 31.9667 67.3071 32.1385C67.5177 32.3103 67.6229 32.4417 67.6229 32.5326V32.5933C67.6229 32.7448 67.5127 32.8206 67.2921 32.8206H64.9609C64.7503 32.8206 64.645 32.7448 64.645 32.5933V32.5326C64.645 32.4417 64.7453 32.3103 64.9458 32.1385C65.1464 31.9667 65.2466 31.7697 65.2466 31.5474V27.4851C65.2466 27.2931 65.1865 27.1364 65.0661 27.0152C64.9559 26.8939 64.8456 26.7979 64.7353 26.7272C64.625 26.6463 64.5698 26.5604 64.5698 26.4695V26.424C64.5698 26.3229 64.6601 26.232 64.8405 26.1512L66.2994 25.4387C66.4599 25.368 66.5752 25.3629 66.6453 25.4236C66.7256 25.4741 66.7657 25.5701 66.7657 25.7116V26.6968C66.9762 26.2825 67.282 25.9592 67.6831 25.7267C68.0842 25.4943 68.5404 25.3781 69.0517 25.3781C69.8238 25.3781 70.4755 25.6459 71.0069 26.1815C71.5384 26.7171 71.8392 27.5457 71.9093 28.6674L72.0898 31.5322Z" fill="white"/>
<path d="M61.9054 30.5773C61.9856 30.4661 62.0858 30.4257 62.2062 30.456C62.3365 30.4863 62.3967 30.5773 62.3866 30.7288C62.3064 31.2644 61.9956 31.7697 61.4542 32.2446C60.9127 32.7196 60.2058 32.9571 59.3335 32.9571C58.3108 32.9571 57.4585 32.6034 56.7767 31.896C56.1049 31.1886 55.769 30.2589 55.769 29.1069C55.769 28.0358 56.115 27.1465 56.8068 26.4392C57.5087 25.7318 58.3609 25.3781 59.3636 25.3781C60.266 25.3781 60.9578 25.6055 61.4391 26.0602C61.9304 26.5048 62.1761 27.0202 62.1761 27.6063C62.1761 28.1318 61.9204 28.4855 61.409 28.6674L57.7694 30.0164C57.9599 30.5419 58.2456 30.9512 58.6266 31.2442C59.0077 31.5373 59.4589 31.6838 59.9802 31.6838C60.4314 31.6838 60.8225 31.5827 61.1534 31.3806C61.4943 31.1684 61.7449 30.9006 61.9054 30.5773ZM59.0628 25.9541C58.5916 25.9541 58.2156 26.1815 57.9348 26.6362C57.6541 27.0909 57.5137 27.6872 57.5137 28.4248C57.5137 28.7684 57.5438 29.0918 57.6039 29.3949L60.1006 28.3036C60.3613 28.1823 60.4916 27.9701 60.4916 27.6669C60.4916 27.3032 60.3512 26.9293 60.0705 26.5453C59.7998 26.1512 59.4639 25.9541 59.0628 25.9541Z" fill="white"/>
<path d="M52.8353 25.5297C53.0458 25.5297 53.2063 25.5499 53.3166 25.5903C53.4369 25.6307 53.502 25.6813 53.5121 25.7419C53.5321 25.8025 53.5221 25.8733 53.482 25.9541C53.4319 26.0754 53.3466 26.1613 53.2263 26.2118C53.116 26.2623 52.9506 26.3027 52.73 26.3331C52.5194 26.3634 52.3791 26.3886 52.3089 26.4088C52.5896 26.6615 52.8152 26.9697 52.9857 27.3335C53.1662 27.6973 53.2564 28.0611 53.2564 28.4248C53.2564 29.0211 53.101 29.5566 52.7902 30.0316C52.4793 30.4964 52.0532 30.8552 51.5118 31.1078C52.7551 31.4008 53.3767 32.0072 53.3767 32.9267C53.3767 33.5937 53.0358 34.1242 52.354 34.5183C51.6722 34.9225 50.8049 35.1246 49.7521 35.1246C48.6792 35.1246 47.832 34.9023 47.2103 34.4577C46.5887 34.0232 46.2778 33.5128 46.2778 32.9267C46.2778 32.7246 46.338 32.5579 46.4583 32.4265C46.5887 32.2851 46.7691 32.2143 46.9998 32.2143C47.2003 32.2143 47.3657 32.2952 47.4961 32.4568C47.6364 32.6185 47.7568 32.8105 47.857 33.0328C47.9573 33.2653 48.0726 33.4977 48.203 33.7301C48.3433 33.9625 48.5489 34.1596 48.8196 34.3213C49.0903 34.4829 49.4212 34.5638 49.8122 34.5638C50.3537 34.5638 50.7848 34.4173 51.1057 34.1242C51.4366 33.8413 51.602 33.4674 51.602 33.0025C51.602 32.568 51.4817 32.2093 51.241 31.9263C51.0104 31.6434 50.6896 31.4817 50.2785 31.4413C50.0378 31.4615 49.8523 31.4716 49.722 31.4716C48.7695 31.4716 47.9673 31.1886 47.3156 30.6227C46.6639 30.0467 46.338 29.3394 46.338 28.5006C46.338 27.5811 46.6588 26.8333 47.3006 26.2573C47.9423 25.6712 48.7745 25.3781 49.7972 25.3781C50.0679 25.3781 50.484 25.4034 51.0455 25.4539C51.607 25.5044 52.2036 25.5297 52.8353 25.5297ZM48.0826 27.7276C48.0826 28.5865 48.2731 29.3293 48.6542 29.9558C49.0352 30.5722 49.4864 30.8804 50.0078 30.8804C50.469 30.8804 50.835 30.7137 51.1057 30.3802C51.3764 30.0467 51.5118 29.6173 51.5118 29.0918C51.5118 28.2328 51.3212 27.4952 50.9402 26.8787C50.5692 26.2623 50.093 25.9541 49.5114 25.9541C49.0703 25.9541 48.7193 26.1208 48.4586 26.4543C48.208 26.7777 48.0826 27.2021 48.0826 27.7276Z" fill="white"/>
<path d="M43.6536 31.4413C43.6736 31.6636 43.7288 31.8404 43.819 31.9718C43.9193 32.0931 44.0145 32.1689 44.1048 32.1992C44.205 32.2295 44.2903 32.2699 44.3605 32.3204C44.4407 32.371 44.4808 32.4367 44.4808 32.5175C44.4808 32.7701 44.0747 32.8964 43.2625 32.8964C42.8615 32.8964 42.5657 32.8358 42.3752 32.7145C42.1947 32.5832 42.0894 32.3407 42.0593 31.987C41.6583 32.6337 40.9614 32.9571 39.9688 32.9571C39.1265 32.9571 38.4447 32.76 37.9233 32.3659C37.412 31.9617 37.1563 31.3958 37.1563 30.6682C37.1463 29.9508 37.4019 29.395 37.9233 29.0009C38.4447 28.5967 39.1015 28.3945 39.8936 28.3945C40.6155 28.3945 41.197 28.5663 41.6382 28.9099L41.6081 28.6068C41.5179 27.6771 41.3575 27 41.1268 26.5756C40.8962 26.1512 40.5303 25.939 40.0289 25.939C39.7181 25.939 39.4574 26.035 39.2468 26.227C39.0463 26.419 38.9059 26.6312 38.8257 26.8636C38.7555 27.0859 38.6503 27.2931 38.5099 27.4851C38.3695 27.6771 38.194 27.7731 37.9835 27.7731C37.7629 27.7731 37.5824 27.7124 37.442 27.5912C37.3117 27.4598 37.2465 27.288 37.2465 27.0758C37.2465 26.5908 37.5072 26.1865 38.0286 25.8632C38.56 25.5398 39.2268 25.3781 40.0289 25.3781C40.9714 25.3781 41.7335 25.6611 42.315 26.227C42.8966 26.7828 43.2425 27.5508 43.3528 28.531L43.6536 31.4413ZM40.4651 32.3811C40.8762 32.3811 41.2071 32.2295 41.4577 31.9263C41.7184 31.6232 41.8387 31.2644 41.8187 30.8501L41.7736 30.3802C41.7435 29.9457 41.5981 29.6021 41.3374 29.3495C41.0767 29.0969 40.7458 28.9705 40.3448 28.9705C39.9236 28.9705 39.5827 29.107 39.322 29.3798C39.0614 29.6425 38.931 30.0013 38.931 30.456C38.931 30.9916 39.0714 31.4463 39.3521 31.8202C39.6429 32.1941 40.0139 32.3811 40.4651 32.3811Z" fill="white"/>
<path d="M82.3139 9.25768C82.4017 10.4956 82.8403 11.8042 83.6299 13.1836C84.4195 14.5629 85.3232 15.6063 86.3409 16.3137C87.3761 17.0034 88.2184 17.1537 88.8676 16.7646C89.5344 16.3756 89.8239 15.5621 89.7362 14.3242C89.6484 13.0686 89.2098 11.76 88.4202 10.3983C87.6481 9.01895 86.7445 7.98442 85.7092 7.29473C84.6915 6.58737 83.8493 6.42821 83.1825 6.81726C82.5157 7.20631 82.2262 8.01979 82.3139 9.25768ZM81.0769 16.6055C79.7082 15.2792 79.0239 13.6787 79.0239 11.8042C79.0239 9.912 79.7082 8.30274 81.0769 6.97642C82.4455 5.6501 84.0949 4.98695 86.025 4.98695C87.9552 4.98695 89.6046 5.6501 90.9732 6.97642C92.3418 8.30274 93.0262 9.912 93.0262 11.8042C93.0262 13.6787 92.3418 15.2792 90.9732 16.6055C89.6046 17.9318 87.9552 18.5949 86.025 18.5949C84.0949 18.5949 82.4455 17.9318 81.0769 16.6055Z" fill="white"/>
<path d="M71.8081 3.63411C71.4045 3.20968 71.2027 2.70568 71.2027 2.1221C71.2027 1.53853 71.4045 1.04337 71.8081 0.636631C72.2292 0.21221 72.7293 0 73.3083 0C73.8874 0 74.3787 0.21221 74.7823 0.636631C75.2034 1.04337 75.4139 1.53853 75.4139 2.1221C75.4139 2.70568 75.2034 3.20968 74.7823 3.63411C74.3787 4.04084 73.8874 4.24421 73.3083 4.24421C72.7293 4.24421 72.2292 4.04084 71.8081 3.63411ZM71.2027 6.71116C71.2027 6.35747 71.0711 6.06568 70.8079 5.83579L70.3605 5.46442C70.2552 5.376 70.2201 5.27874 70.2552 5.17263C70.3079 5.04884 70.3956 4.98695 70.5184 4.98695H75.4139V16.8707C75.4139 17.2244 75.5543 17.5162 75.8351 17.7461L76.2825 18.1175C76.3702 18.2059 76.3878 18.312 76.3351 18.4358C76.3001 18.5419 76.2211 18.5949 76.0983 18.5949H70.5184C70.3956 18.5949 70.3079 18.5419 70.2552 18.4358C70.2201 18.312 70.2552 18.2059 70.3605 18.1175L70.8079 17.7461C71.0711 17.5162 71.2027 17.2244 71.2027 16.8707V6.71116Z" fill="white"/>
<path d="M54.2336 6.71116C54.2336 6.35747 54.102 6.06568 53.8388 5.83579L53.3914 5.46442C53.2861 5.376 53.251 5.27874 53.2861 5.17263C53.3387 5.04884 53.4265 4.98695 53.5493 4.98695H58.4448V7.50695C58.8835 6.71116 59.4187 6.09221 60.0503 5.6501C60.6996 5.208 61.3839 4.98695 62.1033 4.98695C63.4018 4.98695 64.5072 5.6501 65.4196 6.97642C66.3321 8.30274 66.7883 9.90316 66.7883 11.7777C66.7883 12.3436 66.7795 14.0413 66.7619 16.8707C66.7619 17.2244 66.9023 17.5162 67.1831 17.7461L67.6305 18.1175C67.7182 18.2059 67.7358 18.312 67.6831 18.4358C67.6481 18.5419 67.5691 18.5949 67.4463 18.5949H61.8664C61.7436 18.5949 61.6559 18.5419 61.6032 18.4358C61.5681 18.312 61.6032 18.2059 61.7085 18.1175L62.1559 17.7461C62.4191 17.5162 62.5507 17.2244 62.5507 16.8707C62.5683 14.5541 62.5771 13.1747 62.5771 12.7326C62.542 10.7874 62.3577 9.39031 62.0243 8.54147C61.691 7.67495 61.033 7.24168 60.0503 7.24168C59.559 7.24168 59.173 7.52463 58.8923 8.09052C58.6115 8.65642 58.4711 9.33726 58.4711 10.1331V16.8707C58.4711 17.2244 58.6027 17.5162 58.8659 17.7461L59.3134 18.1175C59.4011 18.2059 59.4274 18.312 59.3923 18.4358C59.3573 18.5419 59.2783 18.5949 59.1555 18.5949H53.5493C53.4265 18.5949 53.3387 18.5419 53.2861 18.4358C53.251 18.312 53.2861 18.2059 53.3914 18.1175L53.8388 17.7461C54.102 17.5162 54.2336 17.2244 54.2336 16.8707V6.71116Z" fill="white"/>
<path d="M42.2135 5.80927C41.9503 6.35748 41.573 7.14442 41.0817 8.17011C40.5904 9.19579 40.2219 9.9739 39.9763 10.5044C39.7482 11.0173 39.4762 11.6274 39.1603 12.3347C38.8621 13.0244 38.6427 13.5992 38.5023 14.0589C38.362 14.5011 38.2742 14.8901 38.2391 15.2261C38.1339 16.3579 38.5638 17.0829 39.5288 17.4013C40.4413 17.7019 41.3888 17.5427 42.3714 16.9238C43.5821 16.1811 44.1787 15.1023 44.1611 13.6876C44.1611 13.2808 44.0997 12.8564 43.9769 12.4143L42.2135 5.80927ZM49.4515 16.3933C49.6445 17.0476 50.0305 17.5604 50.6095 17.9318L50.8727 18.091C50.9956 18.1617 51.0307 18.2678 50.978 18.4093C50.9429 18.5331 50.864 18.595 50.7411 18.595H44.6612C44.5209 18.595 44.4331 18.5331 44.398 18.4093C44.3629 18.2678 44.398 18.1705 44.5033 18.1175C44.7665 17.9406 44.9507 17.7107 45.056 17.4278C45.1613 17.1448 45.1789 16.8531 45.1087 16.5524L44.7928 15.4383C44.5472 16.1103 44.1787 16.6939 43.6874 17.1891C43.2136 17.6842 42.696 18.0467 42.1345 18.2766C41.573 18.4888 40.9852 18.595 40.3711 18.595C39.7745 18.5773 39.2305 18.4535 38.7392 18.2236C38.2479 17.976 37.8356 17.5958 37.5022 17.083C37.1863 16.5701 37.0109 15.96 36.9758 15.2526C36.9582 14.6867 37.16 13.8909 37.5811 12.8653C38.0198 11.8396 38.7831 10.2126 39.871 7.98442C40.9764 5.75621 41.8713 3.89053 42.5556 2.38737C42.696 2.06905 42.7135 1.7419 42.6083 1.4059C42.5205 1.0699 42.3275 0.804633 42.0292 0.610107L41.8713 0.530527C41.7485 0.45979 41.7046 0.362527 41.7397 0.238738C41.7748 0.0972644 41.8625 0.0265274 42.0029 0.0265274H46.2141C46.3369 0.0265274 46.4159 0.0972644 46.451 0.238738C46.4861 0.362527 46.451 0.45979 46.3457 0.530527L46.0035 0.742738C45.7403 0.901896 45.5473 1.13179 45.4245 1.43242C45.3192 1.71537 45.3105 2.00716 45.3982 2.30779L49.4515 16.3933Z" fill="white"/>
<path d="M15.9796 6.66232C23.3287 7.13347 29.1398 13.0903 29.1398 20.3693L29.1349 20.7238C28.9414 28.1461 22.7052 34.1055 15.0402 34.1057V29.3371C7.81102 28.8736 2.07017 23.1033 1.88489 15.9865L1.88 15.632C1.88 8.04552 8.19258 1.89494 15.9796 1.89474V6.66232ZM16.5402 9.77071C21.9351 10.476 26.13 14.9284 26.13 20.3684C26.13 22.9233 25.1143 26.491 21.588 29.0295C21.2519 29.2715 20.7832 29.1956 20.5411 28.8596C20.2991 28.5234 20.3759 28.0547 20.712 27.8127C23.7657 25.6144 24.63 22.5503 24.63 20.3684C24.63 15.8006 21.1432 11.9744 16.5402 11.2824V32.5188C22.8196 31.797 27.6393 26.6024 27.6398 20.3693C27.6398 14.1359 22.82 8.93974 16.5402 8.21798V9.77071ZM14.4796 3.48067C8.19977 4.20244 3.38 9.39857 3.38 15.632C3.38024 21.8653 8.19999 27.0597 14.4796 27.7815V3.48067Z" fill="white"/>
</g>
</svg>
